<mxfile host="app.diagrams.net" agent="Mozilla/5.0 (Macintosh; Intel Mac OS X 10_15_7) AppleWebKit/537.36 (KHTML, like Gecko) Chrome/133.0.0.0 Safari/537.36" version="26.1.0">
  <diagram name="Page-1" id="QmS49h7ckAQ48RpZErxg">
    <mxGraphModel dx="1207" dy="805" grid="1" gridSize="10" guides="1" tooltips="1" connect="1" arrows="1" fold="1" page="1" pageScale="1" pageWidth="827" pageHeight="1169" math="0" shadow="0">
      <root>
        <mxCell id="0" />
        <mxCell id="1" parent="0" />
        <mxCell id="2KNw3RPgFfHsVNs4UQfl-1" style="edgeStyle=orthogonalEdgeStyle;rounded=0;orthogonalLoop=1;jettySize=auto;html=1;" edge="1" parent="1" source="2KNw3RPgFfHsVNs4UQfl-2" target="2KNw3RPgFfHsVNs4UQfl-4">
          <mxGeometry relative="1" as="geometry">
            <Array as="points">
              <mxPoint x="59" y="300" />
              <mxPoint x="59" y="420" />
            </Array>
          </mxGeometry>
        </mxCell>
        <mxCell id="2KNw3RPgFfHsVNs4UQfl-2" value="Outsystems&lt;br&gt;API Gateway" style="sketch=0;outlineConnect=0;fontColor=#232F3E;gradientColor=none;fillColor=#232F3D;strokeColor=none;dashed=0;verticalLabelPosition=bottom;verticalAlign=top;align=left;html=1;fontSize=12;fontStyle=0;aspect=fixed;pointerEvents=1;shape=mxgraph.aws4.servers;" vertex="1" parent="1">
          <mxGeometry x="69" y="280" width="40" height="40" as="geometry" />
        </mxCell>
        <mxCell id="2KNw3RPgFfHsVNs4UQfl-3" style="edgeStyle=orthogonalEdgeStyle;rounded=0;orthogonalLoop=1;jettySize=auto;html=1;" edge="1" parent="1" source="2KNw3RPgFfHsVNs4UQfl-4" target="2KNw3RPgFfHsVNs4UQfl-7">
          <mxGeometry relative="1" as="geometry" />
        </mxCell>
        <mxCell id="2KNw3RPgFfHsVNs4UQfl-4" value="Cloudflare" style="sketch=0;outlineConnect=0;fontColor=#232F3E;gradientColor=none;fillColor=#232F3D;strokeColor=none;dashed=0;verticalLabelPosition=top;verticalAlign=bottom;align=center;html=1;fontSize=12;fontStyle=0;aspect=fixed;pointerEvents=1;shape=mxgraph.aws4.internet;labelPosition=center;" vertex="1" parent="1">
          <mxGeometry x="69" y="407.5" width="40.63" height="25" as="geometry" />
        </mxCell>
        <mxCell id="2KNw3RPgFfHsVNs4UQfl-5" value="Host Computer" style="fillColor=none;strokeColor=#5A6C86;verticalAlign=top;fontStyle=0;fontColor=#5A6C86;whiteSpace=wrap;html=1;movable=1;resizable=1;rotatable=1;deletable=1;editable=1;locked=0;connectable=1;align=left;" vertex="1" parent="1">
          <mxGeometry x="159" y="10" width="841" height="730" as="geometry" />
        </mxCell>
        <mxCell id="2KNw3RPgFfHsVNs4UQfl-6" style="edgeStyle=orthogonalEdgeStyle;rounded=0;orthogonalLoop=1;jettySize=auto;html=1;" edge="1" parent="1" source="2KNw3RPgFfHsVNs4UQfl-7" target="2KNw3RPgFfHsVNs4UQfl-66">
          <mxGeometry relative="1" as="geometry" />
        </mxCell>
        <mxCell id="2KNw3RPgFfHsVNs4UQfl-7" value="Cloudflare&lt;div&gt;Daemon&lt;/div&gt;" style="sketch=0;outlineConnect=0;fontColor=#232F3E;gradientColor=none;fillColor=#232F3D;strokeColor=none;dashed=0;verticalLabelPosition=top;verticalAlign=bottom;align=center;html=1;fontSize=12;fontStyle=0;aspect=fixed;pointerEvents=1;shape=mxgraph.aws4.internet;labelPosition=center;" vertex="1" parent="1">
          <mxGeometry x="189" y="407.5" width="40.63" height="25" as="geometry" />
        </mxCell>
        <mxCell id="2KNw3RPgFfHsVNs4UQfl-8" value="Kubernetes" style="fillColor=none;strokeColor=#5A6C86;verticalAlign=top;fontStyle=0;fontColor=#5A6C86;whiteSpace=wrap;html=1;movable=1;resizable=1;rotatable=1;deletable=1;editable=1;locked=0;connectable=1;align=left;" vertex="1" parent="1">
          <mxGeometry x="347" y="174" width="462" height="556" as="geometry" />
        </mxCell>
        <mxCell id="2KNw3RPgFfHsVNs4UQfl-9" value="UI" style="fillColor=none;strokeColor=#5A6C86;dashed=1;verticalAlign=top;fontStyle=0;fontColor=#5A6C86;whiteSpace=wrap;html=1;movable=1;resizable=1;rotatable=1;deletable=1;editable=1;locked=0;connectable=1;align=left;" vertex="1" parent="1">
          <mxGeometry x="369" y="200" width="240" height="100" as="geometry" />
        </mxCell>
        <mxCell id="2KNw3RPgFfHsVNs4UQfl-10" style="edgeStyle=orthogonalEdgeStyle;rounded=0;orthogonalLoop=1;jettySize=auto;html=1;" edge="1" parent="1">
          <mxGeometry relative="1" as="geometry">
            <mxPoint x="460" y="160" as="sourcePoint" />
          </mxGeometry>
        </mxCell>
        <mxCell id="2KNw3RPgFfHsVNs4UQfl-11" value="Backend Services" style="fillColor=none;strokeColor=#5A6C86;dashed=1;verticalAlign=top;fontStyle=0;fontColor=#5A6C86;whiteSpace=wrap;html=1;movable=1;resizable=1;rotatable=1;deletable=1;editable=1;locked=0;connectable=1;align=left;" vertex="1" parent="1">
          <mxGeometry x="369" y="320" width="400" height="280" as="geometry" />
        </mxCell>
        <mxCell id="2KNw3RPgFfHsVNs4UQfl-12" style="edgeStyle=orthogonalEdgeStyle;rounded=0;orthogonalLoop=1;jettySize=auto;html=1;" edge="1" parent="1" source="2KNw3RPgFfHsVNs4UQfl-15" target="2KNw3RPgFfHsVNs4UQfl-61">
          <mxGeometry relative="1" as="geometry" />
        </mxCell>
        <mxCell id="2KNw3RPgFfHsVNs4UQfl-13" style="edgeStyle=orthogonalEdgeStyle;rounded=0;orthogonalLoop=1;jettySize=auto;html=1;" edge="1" parent="1" source="2KNw3RPgFfHsVNs4UQfl-15" target="2KNw3RPgFfHsVNs4UQfl-62">
          <mxGeometry relative="1" as="geometry" />
        </mxCell>
        <mxCell id="2KNw3RPgFfHsVNs4UQfl-14" style="edgeStyle=orthogonalEdgeStyle;rounded=0;orthogonalLoop=1;jettySize=auto;html=1;" edge="1" parent="1" source="2KNw3RPgFfHsVNs4UQfl-15" target="2KNw3RPgFfHsVNs4UQfl-63">
          <mxGeometry relative="1" as="geometry" />
        </mxCell>
        <mxCell id="2KNw3RPgFfHsVNs4UQfl-15" value="User" style="sketch=0;outlineConnect=0;fontColor=#232F3E;gradientColor=none;fillColor=#232F3D;strokeColor=none;dashed=0;verticalLabelPosition=bottom;verticalAlign=top;align=center;html=1;fontSize=12;fontStyle=0;aspect=fixed;pointerEvents=1;shape=mxgraph.aws4.user;" vertex="1" parent="1">
          <mxGeometry x="307" y="20" width="40" height="40" as="geometry" />
        </mxCell>
        <mxCell id="2KNw3RPgFfHsVNs4UQfl-16" value="Temporal" style="fillColor=none;strokeColor=#5A6C86;dashed=1;verticalAlign=top;fontStyle=0;fontColor=#5A6C86;whiteSpace=wrap;html=1;movable=1;resizable=1;rotatable=1;deletable=1;editable=1;locked=0;connectable=1;align=left;" vertex="1" parent="1">
          <mxGeometry x="369" y="620" width="400" height="100" as="geometry" />
        </mxCell>
        <mxCell id="2KNw3RPgFfHsVNs4UQfl-17" style="edgeStyle=orthogonalEdgeStyle;rounded=0;orthogonalLoop=1;jettySize=auto;html=1;" edge="1" parent="1" source="2KNw3RPgFfHsVNs4UQfl-61" target="2KNw3RPgFfHsVNs4UQfl-27">
          <mxGeometry relative="1" as="geometry">
            <mxPoint x="414" y="180" as="sourcePoint" />
            <Array as="points">
              <mxPoint x="449" y="114" />
              <mxPoint x="449" y="230" />
            </Array>
          </mxGeometry>
        </mxCell>
        <mxCell id="2KNw3RPgFfHsVNs4UQfl-18" style="edgeStyle=orthogonalEdgeStyle;rounded=0;orthogonalLoop=1;jettySize=auto;html=1;" edge="1" parent="1" source="2KNw3RPgFfHsVNs4UQfl-62" target="2KNw3RPgFfHsVNs4UQfl-29">
          <mxGeometry relative="1" as="geometry">
            <mxPoint x="484" y="180" as="sourcePoint" />
            <Array as="points">
              <mxPoint x="519" y="114" />
              <mxPoint x="519" y="230" />
            </Array>
          </mxGeometry>
        </mxCell>
        <mxCell id="2KNw3RPgFfHsVNs4UQfl-19" style="edgeStyle=orthogonalEdgeStyle;rounded=0;orthogonalLoop=1;jettySize=auto;html=1;" edge="1" parent="1" source="2KNw3RPgFfHsVNs4UQfl-63" target="2KNw3RPgFfHsVNs4UQfl-31">
          <mxGeometry relative="1" as="geometry">
            <mxPoint x="554.26" y="180" as="sourcePoint" />
            <Array as="points">
              <mxPoint x="589" y="114" />
              <mxPoint x="589" y="230" />
            </Array>
          </mxGeometry>
        </mxCell>
        <mxCell id="2KNw3RPgFfHsVNs4UQfl-89" style="edgeStyle=orthogonalEdgeStyle;rounded=0;orthogonalLoop=1;jettySize=auto;html=1;strokeColor=#E51400;" edge="1" parent="1" source="2KNw3RPgFfHsVNs4UQfl-27" target="2KNw3RPgFfHsVNs4UQfl-80">
          <mxGeometry relative="1" as="geometry">
            <Array as="points">
              <mxPoint x="390" y="240" />
              <mxPoint x="390" y="300" />
              <mxPoint x="760" y="300" />
              <mxPoint x="760" y="230" />
            </Array>
          </mxGeometry>
        </mxCell>
        <mxCell id="2KNw3RPgFfHsVNs4UQfl-91" style="edgeStyle=orthogonalEdgeStyle;rounded=0;orthogonalLoop=1;jettySize=auto;html=1;fillColor=#a20025;strokeColor=#E51400;" edge="1" parent="1" source="2KNw3RPgFfHsVNs4UQfl-27" target="2KNw3RPgFfHsVNs4UQfl-82">
          <mxGeometry relative="1" as="geometry">
            <Array as="points">
              <mxPoint x="390" y="240" />
              <mxPoint x="390" y="300" />
            </Array>
          </mxGeometry>
        </mxCell>
        <mxCell id="2KNw3RPgFfHsVNs4UQfl-92" style="edgeStyle=orthogonalEdgeStyle;rounded=0;orthogonalLoop=1;jettySize=auto;html=1;strokeColor=#E51400;" edge="1" parent="1" source="2KNw3RPgFfHsVNs4UQfl-27" target="2KNw3RPgFfHsVNs4UQfl-76">
          <mxGeometry relative="1" as="geometry">
            <Array as="points">
              <mxPoint x="390" y="240" />
              <mxPoint x="390" y="300" />
              <mxPoint x="760" y="300" />
              <mxPoint x="760" y="408" />
            </Array>
          </mxGeometry>
        </mxCell>
        <mxCell id="2KNw3RPgFfHsVNs4UQfl-93" style="edgeStyle=orthogonalEdgeStyle;rounded=0;orthogonalLoop=1;jettySize=auto;html=1;strokeColor=#E51400;" edge="1" parent="1" source="2KNw3RPgFfHsVNs4UQfl-27" target="2KNw3RPgFfHsVNs4UQfl-83">
          <mxGeometry relative="1" as="geometry">
            <Array as="points">
              <mxPoint x="390" y="240" />
              <mxPoint x="390" y="300" />
              <mxPoint x="760" y="300" />
              <mxPoint x="760" y="495" />
            </Array>
          </mxGeometry>
        </mxCell>
        <mxCell id="2KNw3RPgFfHsVNs4UQfl-104" value="Admin UI" style="edgeLabel;html=1;align=center;verticalAlign=middle;resizable=0;points=[];" vertex="1" connectable="0" parent="2KNw3RPgFfHsVNs4UQfl-93">
          <mxGeometry x="0.0042" y="-2" relative="1" as="geometry">
            <mxPoint as="offset" />
          </mxGeometry>
        </mxCell>
        <mxCell id="2KNw3RPgFfHsVNs4UQfl-27" value="&lt;font style=&quot;color: rgb(0, 0, 0);&quot;&gt;&lt;font&gt;Admin&lt;br&gt;&lt;/font&gt;UI&lt;/font&gt;" style="sketch=0;outlineConnect=0;fillColor=#E51400;strokeColor=#B20000;dashed=0;verticalLabelPosition=bottom;verticalAlign=top;align=center;html=1;fontSize=12;fontStyle=0;aspect=fixed;pointerEvents=1;shape=mxgraph.aws4.generic_application;fontColor=#ffffff;" vertex="1" parent="1">
          <mxGeometry x="399" y="210" width="40" height="40" as="geometry" />
        </mxCell>
        <mxCell id="2KNw3RPgFfHsVNs4UQfl-94" style="edgeStyle=orthogonalEdgeStyle;rounded=0;orthogonalLoop=1;jettySize=auto;html=1;strokeColor=#6D8764;" edge="1" parent="1" source="2KNw3RPgFfHsVNs4UQfl-29" target="2KNw3RPgFfHsVNs4UQfl-82">
          <mxGeometry relative="1" as="geometry">
            <Array as="points">
              <mxPoint x="460" y="240" />
              <mxPoint x="460" y="320" />
            </Array>
          </mxGeometry>
        </mxCell>
        <mxCell id="2KNw3RPgFfHsVNs4UQfl-95" style="edgeStyle=orthogonalEdgeStyle;rounded=0;orthogonalLoop=1;jettySize=auto;html=1;strokeColor=#6D8764;" edge="1" parent="1" source="2KNw3RPgFfHsVNs4UQfl-29" target="2KNw3RPgFfHsVNs4UQfl-80">
          <mxGeometry relative="1" as="geometry">
            <Array as="points">
              <mxPoint x="460" y="240" />
              <mxPoint x="460" y="320" />
              <mxPoint x="780" y="320" />
              <mxPoint x="780" y="240" />
            </Array>
          </mxGeometry>
        </mxCell>
        <mxCell id="2KNw3RPgFfHsVNs4UQfl-97" style="edgeStyle=orthogonalEdgeStyle;rounded=0;orthogonalLoop=1;jettySize=auto;html=1;strokeColor=#6D8764;" edge="1" parent="1" source="2KNw3RPgFfHsVNs4UQfl-29" target="2KNw3RPgFfHsVNs4UQfl-78">
          <mxGeometry relative="1" as="geometry">
            <Array as="points">
              <mxPoint x="460" y="240" />
              <mxPoint x="460" y="320" />
              <mxPoint x="780" y="320" />
              <mxPoint x="780" y="155" />
            </Array>
          </mxGeometry>
        </mxCell>
        <mxCell id="2KNw3RPgFfHsVNs4UQfl-99" style="edgeStyle=orthogonalEdgeStyle;rounded=0;orthogonalLoop=1;jettySize=auto;html=1;strokeColor=#6D8764;" edge="1" parent="1" source="2KNw3RPgFfHsVNs4UQfl-29" target="2KNw3RPgFfHsVNs4UQfl-83">
          <mxGeometry relative="1" as="geometry">
            <Array as="points">
              <mxPoint x="460" y="240" />
              <mxPoint x="460" y="320" />
              <mxPoint x="780" y="320" />
              <mxPoint x="780" y="510" />
            </Array>
          </mxGeometry>
        </mxCell>
        <mxCell id="2KNw3RPgFfHsVNs4UQfl-105" value="Customer UI" style="edgeLabel;html=1;align=center;verticalAlign=middle;resizable=0;points=[];" vertex="1" connectable="0" parent="2KNw3RPgFfHsVNs4UQfl-99">
          <mxGeometry x="-0.019" y="-1" relative="1" as="geometry">
            <mxPoint as="offset" />
          </mxGeometry>
        </mxCell>
        <mxCell id="2KNw3RPgFfHsVNs4UQfl-29" value="&lt;font style=&quot;color: rgb(0, 0, 0);&quot;&gt;Customer&lt;br&gt;UI&lt;/font&gt;" style="sketch=0;outlineConnect=0;fontColor=#ffffff;fillColor=#6D8764;strokeColor=#3A5431;dashed=0;verticalLabelPosition=bottom;verticalAlign=top;align=center;html=1;fontSize=12;fontStyle=0;aspect=fixed;pointerEvents=1;shape=mxgraph.aws4.generic_application;" vertex="1" parent="1">
          <mxGeometry x="469" y="210" width="40" height="40" as="geometry" />
        </mxCell>
        <mxCell id="2KNw3RPgFfHsVNs4UQfl-101" style="edgeStyle=orthogonalEdgeStyle;rounded=0;orthogonalLoop=1;jettySize=auto;html=1;strokeColor=#D80073;" edge="1" parent="1" source="2KNw3RPgFfHsVNs4UQfl-31" target="2KNw3RPgFfHsVNs4UQfl-76">
          <mxGeometry relative="1" as="geometry">
            <Array as="points">
              <mxPoint x="530" y="240" />
              <mxPoint x="530" y="340" />
              <mxPoint x="830" y="340" />
              <mxPoint x="830" y="400" />
            </Array>
          </mxGeometry>
        </mxCell>
        <mxCell id="2KNw3RPgFfHsVNs4UQfl-103" style="edgeStyle=orthogonalEdgeStyle;rounded=0;orthogonalLoop=1;jettySize=auto;html=1;strokeColor=#D80073;" edge="1" parent="1" source="2KNw3RPgFfHsVNs4UQfl-31" target="2KNw3RPgFfHsVNs4UQfl-80">
          <mxGeometry relative="1" as="geometry">
            <Array as="points">
              <mxPoint x="530" y="240" />
              <mxPoint x="530" y="340" />
              <mxPoint x="830" y="340" />
              <mxPoint x="830" y="250" />
            </Array>
          </mxGeometry>
        </mxCell>
        <mxCell id="2KNw3RPgFfHsVNs4UQfl-106" value="Driver UI" style="edgeLabel;html=1;align=center;verticalAlign=middle;resizable=0;points=[];" vertex="1" connectable="0" parent="2KNw3RPgFfHsVNs4UQfl-103">
          <mxGeometry x="0.0957" relative="1" as="geometry">
            <mxPoint as="offset" />
          </mxGeometry>
        </mxCell>
        <mxCell id="2KNw3RPgFfHsVNs4UQfl-31" value="&lt;font style=&quot;color: rgb(0, 0, 0);&quot;&gt;Driver&lt;br&gt;UI&lt;/font&gt;" style="sketch=0;outlineConnect=0;fontColor=#ffffff;fillColor=#D80073;strokeColor=#A50040;dashed=0;verticalLabelPosition=bottom;verticalAlign=top;align=center;html=1;fontSize=12;fontStyle=0;aspect=fixed;pointerEvents=1;shape=mxgraph.aws4.generic_application;" vertex="1" parent="1">
          <mxGeometry x="539.26" y="210" width="40" height="40" as="geometry" />
        </mxCell>
        <mxCell id="2KNw3RPgFfHsVNs4UQfl-32" style="edgeStyle=orthogonalEdgeStyle;rounded=0;orthogonalLoop=1;jettySize=auto;html=1;fillColor=#dae8fc;strokeColor=#6c8ebf;" edge="1" parent="1" source="2KNw3RPgFfHsVNs4UQfl-34" target="2KNw3RPgFfHsVNs4UQfl-46">
          <mxGeometry relative="1" as="geometry">
            <Array as="points">
              <mxPoint x="449" y="440" />
              <mxPoint x="449" y="490" />
              <mxPoint x="699" y="490" />
            </Array>
          </mxGeometry>
        </mxCell>
        <mxCell id="2KNw3RPgFfHsVNs4UQfl-33" style="edgeStyle=orthogonalEdgeStyle;rounded=0;orthogonalLoop=1;jettySize=auto;html=1;fillColor=#ffe6cc;strokeColor=#d79b00;" edge="1" parent="1" source="2KNw3RPgFfHsVNs4UQfl-34" target="2KNw3RPgFfHsVNs4UQfl-54">
          <mxGeometry relative="1" as="geometry">
            <Array as="points">
              <mxPoint x="399" y="560" />
              <mxPoint x="554" y="560" />
            </Array>
          </mxGeometry>
        </mxCell>
        <mxCell id="2KNw3RPgFfHsVNs4UQfl-34" value="Order&lt;br&gt;Service" style="sketch=0;outlineConnect=0;fontColor=#232F3E;gradientColor=none;fillColor=#82B366;strokeColor=none;dashed=0;verticalLabelPosition=bottom;verticalAlign=top;align=center;html=1;fontSize=12;fontStyle=0;aspect=fixed;pointerEvents=1;shape=mxgraph.aws4.generic_application;" vertex="1" parent="1">
          <mxGeometry x="399" y="400" width="40" height="40" as="geometry" />
        </mxCell>
        <mxCell id="2KNw3RPgFfHsVNs4UQfl-35" style="edgeStyle=orthogonalEdgeStyle;rounded=0;orthogonalLoop=1;jettySize=auto;html=1;fillColor=#dae8fc;strokeColor=#6c8ebf;" edge="1" parent="1" source="2KNw3RPgFfHsVNs4UQfl-37" target="2KNw3RPgFfHsVNs4UQfl-46">
          <mxGeometry relative="1" as="geometry">
            <Array as="points">
              <mxPoint x="519" y="440" />
              <mxPoint x="519" y="490" />
              <mxPoint x="699" y="490" />
            </Array>
          </mxGeometry>
        </mxCell>
        <mxCell id="2KNw3RPgFfHsVNs4UQfl-36" style="edgeStyle=orthogonalEdgeStyle;rounded=0;orthogonalLoop=1;jettySize=auto;html=1;fillColor=#ffe6cc;strokeColor=#d79b00;" edge="1" parent="1" source="2KNw3RPgFfHsVNs4UQfl-37" target="2KNw3RPgFfHsVNs4UQfl-54">
          <mxGeometry relative="1" as="geometry">
            <Array as="points">
              <mxPoint x="459" y="420" />
              <mxPoint x="459" y="560" />
              <mxPoint x="554" y="560" />
            </Array>
          </mxGeometry>
        </mxCell>
        <mxCell id="2KNw3RPgFfHsVNs4UQfl-37" value="Notification&lt;br&gt;Service" style="sketch=0;outlineConnect=0;fontColor=#232F3E;gradientColor=none;fillColor=#D6B656;strokeColor=none;dashed=0;verticalLabelPosition=bottom;verticalAlign=top;align=center;html=1;fontSize=12;fontStyle=0;aspect=fixed;pointerEvents=1;shape=mxgraph.aws4.generic_application;" vertex="1" parent="1">
          <mxGeometry x="469" y="400" width="40" height="40" as="geometry" />
        </mxCell>
        <mxCell id="2KNw3RPgFfHsVNs4UQfl-38" style="edgeStyle=orthogonalEdgeStyle;rounded=0;orthogonalLoop=1;jettySize=auto;html=1;fillColor=#dae8fc;strokeColor=#6c8ebf;" edge="1" parent="1" source="2KNw3RPgFfHsVNs4UQfl-40" target="2KNw3RPgFfHsVNs4UQfl-46">
          <mxGeometry relative="1" as="geometry">
            <Array as="points">
              <mxPoint x="529" y="420" />
              <mxPoint x="529" y="490" />
              <mxPoint x="699" y="490" />
            </Array>
          </mxGeometry>
        </mxCell>
        <mxCell id="2KNw3RPgFfHsVNs4UQfl-39" style="edgeStyle=orthogonalEdgeStyle;rounded=0;orthogonalLoop=1;jettySize=auto;html=1;fillColor=#ffe6cc;strokeColor=#d79b00;" edge="1" parent="1" source="2KNw3RPgFfHsVNs4UQfl-40" target="2KNw3RPgFfHsVNs4UQfl-54">
          <mxGeometry relative="1" as="geometry">
            <Array as="points">
              <mxPoint x="589" y="440" />
              <mxPoint x="589" y="560" />
              <mxPoint x="554" y="560" />
            </Array>
          </mxGeometry>
        </mxCell>
        <mxCell id="2KNw3RPgFfHsVNs4UQfl-40" value="Invoice&lt;br&gt;Service" style="sketch=0;outlineConnect=0;fontColor=#232F3E;gradientColor=none;fillColor=#001DBC;strokeColor=none;dashed=0;verticalLabelPosition=bottom;verticalAlign=top;align=center;html=1;fontSize=12;fontStyle=0;aspect=fixed;pointerEvents=1;shape=mxgraph.aws4.generic_application;" vertex="1" parent="1">
          <mxGeometry x="539.26" y="400" width="40" height="40" as="geometry" />
        </mxCell>
        <mxCell id="2KNw3RPgFfHsVNs4UQfl-41" style="edgeStyle=orthogonalEdgeStyle;rounded=0;orthogonalLoop=1;jettySize=auto;html=1;fillColor=#dae8fc;strokeColor=#6c8ebf;" edge="1" parent="1" source="2KNw3RPgFfHsVNs4UQfl-43" target="2KNw3RPgFfHsVNs4UQfl-46">
          <mxGeometry relative="1" as="geometry">
            <Array as="points">
              <mxPoint x="659" y="420" />
              <mxPoint x="659" y="490" />
              <mxPoint x="699" y="490" />
            </Array>
          </mxGeometry>
        </mxCell>
        <mxCell id="2KNw3RPgFfHsVNs4UQfl-42" style="edgeStyle=orthogonalEdgeStyle;rounded=0;orthogonalLoop=1;jettySize=auto;html=1;fillColor=#ffe6cc;strokeColor=#d79b00;" edge="1" parent="1" source="2KNw3RPgFfHsVNs4UQfl-43" target="2KNw3RPgFfHsVNs4UQfl-54">
          <mxGeometry relative="1" as="geometry">
            <Array as="points">
              <mxPoint x="599" y="420" />
              <mxPoint x="599" y="560" />
              <mxPoint x="554" y="560" />
            </Array>
          </mxGeometry>
        </mxCell>
        <mxCell id="2KNw3RPgFfHsVNs4UQfl-43" value="Driver&lt;br&gt;Service" style="sketch=0;outlineConnect=0;fontColor=#232F3E;gradientColor=none;fillColor=#2D7600;strokeColor=none;dashed=0;verticalLabelPosition=bottom;verticalAlign=top;align=center;html=1;fontSize=12;fontStyle=0;aspect=fixed;pointerEvents=1;shape=mxgraph.aws4.generic_application;" vertex="1" parent="1">
          <mxGeometry x="609.26" y="400" width="40" height="40" as="geometry" />
        </mxCell>
        <mxCell id="2KNw3RPgFfHsVNs4UQfl-44" style="edgeStyle=orthogonalEdgeStyle;rounded=0;orthogonalLoop=1;jettySize=auto;html=1;fillColor=#dae8fc;strokeColor=#6c8ebf;" edge="1" parent="1" source="2KNw3RPgFfHsVNs4UQfl-45" target="2KNw3RPgFfHsVNs4UQfl-46">
          <mxGeometry relative="1" as="geometry">
            <Array as="points">
              <mxPoint x="729" y="420" />
              <mxPoint x="729" y="490" />
              <mxPoint x="699" y="490" />
            </Array>
          </mxGeometry>
        </mxCell>
        <mxCell id="2KNw3RPgFfHsVNs4UQfl-45" value="Chatbot&lt;br&gt;Service" style="sketch=0;outlineConnect=0;fontColor=#232F3E;gradientColor=none;fillColor=#9673A6;strokeColor=none;dashed=0;verticalLabelPosition=bottom;verticalAlign=top;align=center;html=1;fontSize=12;fontStyle=0;aspect=fixed;pointerEvents=1;shape=mxgraph.aws4.generic_application;" vertex="1" parent="1">
          <mxGeometry x="679.26" y="400" width="40" height="40" as="geometry" />
        </mxCell>
        <mxCell id="2KNw3RPgFfHsVNs4UQfl-46" value="Auth&lt;div&gt;&lt;span style=&quot;background-color: transparent; color: light-dark(rgb(35, 47, 62), rgb(189, 199, 212));&quot;&gt;Service&lt;/span&gt;&lt;/div&gt;" style="sketch=0;outlineConnect=0;fontColor=#232F3E;gradientColor=none;fillColor=#B85450;strokeColor=none;dashed=0;verticalLabelPosition=bottom;verticalAlign=top;align=center;html=1;fontSize=12;fontStyle=0;aspect=fixed;pointerEvents=1;shape=mxgraph.aws4.generic_application;" vertex="1" parent="1">
          <mxGeometry x="679.26" y="520" width="40" height="40" as="geometry" />
        </mxCell>
        <mxCell id="2KNw3RPgFfHsVNs4UQfl-52" style="edgeStyle=orthogonalEdgeStyle;rounded=0;orthogonalLoop=1;jettySize=auto;html=1;" edge="1" parent="1" source="2KNw3RPgFfHsVNs4UQfl-54" target="2KNw3RPgFfHsVNs4UQfl-55">
          <mxGeometry relative="1" as="geometry" />
        </mxCell>
        <mxCell id="2KNw3RPgFfHsVNs4UQfl-53" style="edgeStyle=orthogonalEdgeStyle;rounded=0;orthogonalLoop=1;jettySize=auto;html=1;" edge="1" parent="1" source="2KNw3RPgFfHsVNs4UQfl-54" target="2KNw3RPgFfHsVNs4UQfl-57">
          <mxGeometry relative="1" as="geometry" />
        </mxCell>
        <mxCell id="2KNw3RPgFfHsVNs4UQfl-54" value="Temporal&lt;br&gt;Orchestrator" style="sketch=0;outlineConnect=0;fontColor=#232F3E;gradientColor=none;fillColor=#232F3D;strokeColor=none;dashed=0;verticalLabelPosition=bottom;verticalAlign=top;align=left;html=1;fontSize=12;fontStyle=0;aspect=fixed;pointerEvents=1;shape=mxgraph.aws4.generic_application;" vertex="1" parent="1">
          <mxGeometry x="534.26" y="640" width="40" height="40" as="geometry" />
        </mxCell>
        <mxCell id="2KNw3RPgFfHsVNs4UQfl-55" value="Temporal&lt;br&gt;Worker" style="sketch=0;outlineConnect=0;fontColor=#232F3E;gradientColor=none;fillColor=#232F3D;strokeColor=none;dashed=0;verticalLabelPosition=bottom;verticalAlign=top;align=center;html=1;fontSize=12;fontStyle=0;aspect=fixed;pointerEvents=1;shape=mxgraph.aws4.generic_application;" vertex="1" parent="1">
          <mxGeometry x="429" y="640" width="40" height="40" as="geometry" />
        </mxCell>
        <mxCell id="2KNw3RPgFfHsVNs4UQfl-56" style="edgeStyle=none;html=1;rounded=0;curved=0;" edge="1" parent="1" source="2KNw3RPgFfHsVNs4UQfl-57" target="2KNw3RPgFfHsVNs4UQfl-68">
          <mxGeometry relative="1" as="geometry">
            <Array as="points">
              <mxPoint x="701" y="660" />
            </Array>
          </mxGeometry>
        </mxCell>
        <mxCell id="2KNw3RPgFfHsVNs4UQfl-57" value="Temporal&lt;br&gt;Worker" style="sketch=0;outlineConnect=0;fontColor=#232F3E;gradientColor=none;fillColor=#232F3D;strokeColor=none;dashed=0;verticalLabelPosition=bottom;verticalAlign=top;align=center;html=1;fontSize=12;fontStyle=0;aspect=fixed;pointerEvents=1;shape=mxgraph.aws4.generic_application;" vertex="1" parent="1">
          <mxGeometry x="634" y="640" width="40" height="40" as="geometry" />
        </mxCell>
        <mxCell id="2KNw3RPgFfHsVNs4UQfl-58" style="edgeStyle=orthogonalEdgeStyle;rounded=0;orthogonalLoop=1;jettySize=auto;html=1;" edge="1" parent="1" source="2KNw3RPgFfHsVNs4UQfl-59" target="2KNw3RPgFfHsVNs4UQfl-2">
          <mxGeometry relative="1" as="geometry">
            <Array as="points">
              <mxPoint x="119" y="180" />
              <mxPoint x="119" y="300" />
            </Array>
          </mxGeometry>
        </mxCell>
        <mxCell id="2KNw3RPgFfHsVNs4UQfl-59" value="External&lt;br&gt;Users via&lt;div&gt;API&lt;/div&gt;" style="sketch=0;outlineConnect=0;fontColor=#232F3E;gradientColor=none;fillColor=#232F3D;strokeColor=none;dashed=0;verticalLabelPosition=bottom;verticalAlign=top;align=center;html=1;fontSize=12;fontStyle=0;aspect=fixed;pointerEvents=1;shape=mxgraph.aws4.user;" vertex="1" parent="1">
          <mxGeometry x="69" y="160" width="40" height="40" as="geometry" />
        </mxCell>
        <mxCell id="2KNw3RPgFfHsVNs4UQfl-60" style="edgeStyle=orthogonalEdgeStyle;rounded=0;orthogonalLoop=1;jettySize=auto;html=1;" edge="1" parent="1" target="2KNw3RPgFfHsVNs4UQfl-34">
          <mxGeometry relative="1" as="geometry">
            <mxPoint x="329" y="420.0000000000001" as="sourcePoint" />
          </mxGeometry>
        </mxCell>
        <mxCell id="2KNw3RPgFfHsVNs4UQfl-61" value="&lt;div style=&quot;line-height: 90%;&quot;&gt;Port&lt;br&gt;3000&lt;/div&gt;" style="fillColor=#808080;aspect=fixed;sketch=0;pointerEvents=1;shadow=0;dashed=0;html=1;strokeColor=none;labelPosition=center;verticalLabelPosition=bottom;outlineConnect=0;verticalAlign=top;align=center;shape=mxgraph.openstack.neutron_port;" vertex="1" parent="1">
          <mxGeometry x="394.26" y="89" width="50" height="50" as="geometry" />
        </mxCell>
        <mxCell id="2KNw3RPgFfHsVNs4UQfl-62" value="&lt;div style=&quot;line-height: 90%;&quot;&gt;Port&lt;br&gt;4000&lt;/div&gt;" style="fillColor=#808080;aspect=fixed;sketch=0;pointerEvents=1;shadow=0;dashed=0;html=1;strokeColor=none;labelPosition=center;verticalLabelPosition=bottom;outlineConnect=0;verticalAlign=top;align=center;shape=mxgraph.openstack.neutron_port;" vertex="1" parent="1">
          <mxGeometry x="464.26" y="89" width="50" height="50" as="geometry" />
        </mxCell>
        <mxCell id="2KNw3RPgFfHsVNs4UQfl-63" value="&lt;div style=&quot;line-height: 90%;&quot;&gt;Port&lt;br&gt;5000&lt;/div&gt;" style="fillColor=#808080;aspect=fixed;sketch=0;pointerEvents=1;shadow=0;dashed=0;html=1;strokeColor=none;labelPosition=center;verticalLabelPosition=bottom;outlineConnect=0;verticalAlign=top;align=center;shape=mxgraph.openstack.neutron_port;" vertex="1" parent="1">
          <mxGeometry x="534.26" y="89" width="50" height="50" as="geometry" />
        </mxCell>
        <mxCell id="2KNw3RPgFfHsVNs4UQfl-66" value="&lt;div style=&quot;line-height: 90%;&quot;&gt;Port&lt;br&gt;7000&lt;/div&gt;" style="fillColor=#808080;aspect=fixed;sketch=0;pointerEvents=1;shadow=0;dashed=0;html=1;strokeColor=none;labelPosition=center;verticalLabelPosition=bottom;outlineConnect=0;verticalAlign=top;align=center;shape=mxgraph.openstack.neutron_port;" vertex="1" parent="1">
          <mxGeometry x="279" y="395" width="50" height="50" as="geometry" />
        </mxCell>
        <mxCell id="2KNw3RPgFfHsVNs4UQfl-67" value="External Services" style="fillColor=none;strokeColor=#5A6C86;dashed=1;verticalAlign=top;fontStyle=0;fontColor=#5A6C86;whiteSpace=wrap;html=1;movable=1;resizable=1;rotatable=1;deletable=1;editable=1;locked=0;connectable=1;align=left;" vertex="1" parent="1">
          <mxGeometry x="369" y="783" width="400" height="100" as="geometry" />
        </mxCell>
        <mxCell id="2KNw3RPgFfHsVNs4UQfl-68" value="Stripe Payment&lt;br&gt;Service" style="sketch=0;outlineConnect=0;fontColor=#232F3E;gradientColor=none;fillColor=#232F3D;strokeColor=none;dashed=0;verticalLabelPosition=bottom;verticalAlign=top;align=center;html=1;fontSize=12;fontStyle=0;aspect=fixed;pointerEvents=1;shape=mxgraph.aws4.generic_application;" vertex="1" parent="1">
          <mxGeometry x="679.26" y="801" width="40" height="40" as="geometry" />
        </mxCell>
        <mxCell id="2KNw3RPgFfHsVNs4UQfl-69" value="" style="endArrow=none;startArrow=classic;html=1;rounded=0;edgeStyle=orthogonalEdgeStyle;startFill=1;fillColor=#f8cecc;strokeColor=#b85450;" edge="1" parent="1" source="2KNw3RPgFfHsVNs4UQfl-73" target="2KNw3RPgFfHsVNs4UQfl-27">
          <mxGeometry width="50" height="50" relative="1" as="geometry">
            <mxPoint x="490" y="390" as="sourcePoint" />
            <mxPoint x="540" y="340" as="targetPoint" />
            <Array as="points">
              <mxPoint x="620" y="80" />
              <mxPoint x="620" y="200" />
              <mxPoint x="390" y="200" />
              <mxPoint x="390" y="220" />
            </Array>
          </mxGeometry>
        </mxCell>
        <mxCell id="2KNw3RPgFfHsVNs4UQfl-70" value="" style="endArrow=none;startArrow=none;html=1;rounded=0;edgeStyle=orthogonalEdgeStyle;startFill=0;fillColor=#f8cecc;strokeColor=#b85450;" edge="1" parent="1" source="2KNw3RPgFfHsVNs4UQfl-73" target="2KNw3RPgFfHsVNs4UQfl-29">
          <mxGeometry width="50" height="50" relative="1" as="geometry">
            <mxPoint x="729" y="550" as="sourcePoint" />
            <mxPoint x="409" y="240" as="targetPoint" />
            <Array as="points">
              <mxPoint x="620" y="80" />
              <mxPoint x="620" y="200" />
              <mxPoint x="460" y="200" />
              <mxPoint x="460" y="220" />
            </Array>
          </mxGeometry>
        </mxCell>
        <mxCell id="2KNw3RPgFfHsVNs4UQfl-72" value="" style="endArrow=none;startArrow=none;html=1;rounded=0;edgeStyle=orthogonalEdgeStyle;startFill=0;fillColor=#f8cecc;strokeColor=#b85450;" edge="1" parent="1" source="2KNw3RPgFfHsVNs4UQfl-73" target="2KNw3RPgFfHsVNs4UQfl-31">
          <mxGeometry width="50" height="50" relative="1" as="geometry">
            <mxPoint x="739" y="560" as="sourcePoint" />
            <mxPoint x="419" y="250" as="targetPoint" />
            <Array as="points">
              <mxPoint x="620" y="80" />
              <mxPoint x="620" y="200" />
              <mxPoint x="530" y="200" />
              <mxPoint x="530" y="220" />
            </Array>
          </mxGeometry>
        </mxCell>
        <mxCell id="2KNw3RPgFfHsVNs4UQfl-75" style="edgeStyle=orthogonalEdgeStyle;rounded=0;orthogonalLoop=1;jettySize=auto;html=1;fillColor=#f8cecc;strokeColor=#B85450;" edge="1" parent="1" source="2KNw3RPgFfHsVNs4UQfl-73" target="2KNw3RPgFfHsVNs4UQfl-46">
          <mxGeometry relative="1" as="geometry">
            <Array as="points">
              <mxPoint x="990" y="80" />
              <mxPoint x="990" y="560" />
            </Array>
          </mxGeometry>
        </mxCell>
        <mxCell id="2KNw3RPgFfHsVNs4UQfl-73" value="&lt;div style=&quot;line-height: 90%;&quot;&gt;(Auth) Port&lt;br&gt;3002&lt;/div&gt;" style="fillColor=#B85450;aspect=fixed;sketch=0;pointerEvents=1;shadow=0;dashed=0;html=1;strokeColor=none;labelPosition=center;verticalLabelPosition=bottom;outlineConnect=0;verticalAlign=top;align=center;shape=mxgraph.openstack.neutron_port;" vertex="1" parent="1">
          <mxGeometry x="870" y="50" width="50" height="50" as="geometry" />
        </mxCell>
        <mxCell id="2KNw3RPgFfHsVNs4UQfl-77" style="edgeStyle=orthogonalEdgeStyle;rounded=0;orthogonalLoop=1;jettySize=auto;html=1;fillColor=#60a917;strokeColor=#2D7600;" edge="1" parent="1" source="2KNw3RPgFfHsVNs4UQfl-76" target="2KNw3RPgFfHsVNs4UQfl-43">
          <mxGeometry relative="1" as="geometry">
            <Array as="points">
              <mxPoint x="940" y="407" />
              <mxPoint x="940" y="460" />
              <mxPoint x="860" y="460" />
              <mxPoint x="860" y="390" />
              <mxPoint x="629" y="390" />
            </Array>
          </mxGeometry>
        </mxCell>
        <mxCell id="2KNw3RPgFfHsVNs4UQfl-76" value="&lt;div style=&quot;line-height: 90%;&quot;&gt;(Driver) Port&lt;br&gt;3006&lt;/div&gt;" style="fillColor=#2D7600;aspect=fixed;sketch=0;pointerEvents=1;shadow=0;dashed=0;html=1;strokeColor=none;labelPosition=center;verticalLabelPosition=bottom;outlineConnect=0;verticalAlign=top;align=center;shape=mxgraph.openstack.neutron_port;" vertex="1" parent="1">
          <mxGeometry x="870" y="382.5" width="50" height="50" as="geometry" />
        </mxCell>
        <mxCell id="2KNw3RPgFfHsVNs4UQfl-79" style="edgeStyle=orthogonalEdgeStyle;rounded=0;orthogonalLoop=1;jettySize=auto;html=1;fillColor=#e1d5e7;strokeColor=#9673A6;" edge="1" parent="1" source="2KNw3RPgFfHsVNs4UQfl-78" target="2KNw3RPgFfHsVNs4UQfl-45">
          <mxGeometry relative="1" as="geometry">
            <Array as="points">
              <mxPoint x="940" y="155" />
              <mxPoint x="940" y="210" />
              <mxPoint x="860" y="210" />
              <mxPoint x="860" y="360" />
              <mxPoint x="699" y="360" />
            </Array>
          </mxGeometry>
        </mxCell>
        <mxCell id="2KNw3RPgFfHsVNs4UQfl-78" value="&lt;div style=&quot;line-height: 90%;&quot;&gt;(Chatbot) Port&lt;br&gt;3003&lt;/div&gt;" style="fillColor=#9673A6;aspect=fixed;sketch=0;pointerEvents=1;shadow=0;dashed=0;html=1;strokeColor=none;labelPosition=center;verticalLabelPosition=bottom;outlineConnect=0;verticalAlign=top;align=center;shape=mxgraph.openstack.neutron_port;" vertex="1" parent="1">
          <mxGeometry x="870" y="130" width="50" height="50" as="geometry" />
        </mxCell>
        <mxCell id="2KNw3RPgFfHsVNs4UQfl-87" style="edgeStyle=orthogonalEdgeStyle;rounded=0;orthogonalLoop=1;jettySize=auto;html=1;fillColor=#fff2cc;strokeColor=#D6B656;" edge="1" parent="1" source="2KNw3RPgFfHsVNs4UQfl-80" target="2KNw3RPgFfHsVNs4UQfl-37">
          <mxGeometry relative="1" as="geometry">
            <Array as="points">
              <mxPoint x="940" y="238" />
              <mxPoint x="940" y="290" />
              <mxPoint x="850" y="290" />
              <mxPoint x="850" y="350" />
              <mxPoint x="489" y="350" />
            </Array>
          </mxGeometry>
        </mxCell>
        <mxCell id="2KNw3RPgFfHsVNs4UQfl-80" value="&lt;div style=&quot;line-height: 90%;&quot;&gt;(Noti) Port&lt;br&gt;3004&lt;/div&gt;" style="fillColor=#D6B656;aspect=fixed;sketch=0;pointerEvents=1;shadow=0;dashed=0;html=1;strokeColor=none;labelPosition=center;verticalLabelPosition=bottom;outlineConnect=0;verticalAlign=top;align=center;shape=mxgraph.openstack.neutron_port;" vertex="1" parent="1">
          <mxGeometry x="870" y="213" width="50" height="50" as="geometry" />
        </mxCell>
        <mxCell id="2KNw3RPgFfHsVNs4UQfl-85" style="edgeStyle=orthogonalEdgeStyle;rounded=0;orthogonalLoop=1;jettySize=auto;html=1;fillColor=#d5e8d4;strokeColor=#82B366;" edge="1" parent="1" source="2KNw3RPgFfHsVNs4UQfl-82" target="2KNw3RPgFfHsVNs4UQfl-34">
          <mxGeometry relative="1" as="geometry">
            <Array as="points">
              <mxPoint x="940" y="323" />
              <mxPoint x="940" y="380" />
              <mxPoint x="419" y="380" />
            </Array>
          </mxGeometry>
        </mxCell>
        <mxCell id="2KNw3RPgFfHsVNs4UQfl-82" value="&lt;div style=&quot;line-height: 90%;&quot;&gt;(Order) Port&lt;br&gt;3005&lt;/div&gt;" style="fillColor=#82B366;aspect=fixed;sketch=0;pointerEvents=1;shadow=0;dashed=0;html=1;strokeColor=none;labelPosition=center;verticalLabelPosition=bottom;outlineConnect=0;verticalAlign=top;align=center;shape=mxgraph.openstack.neutron_port;" vertex="1" parent="1">
          <mxGeometry x="870" y="297.5" width="50" height="50" as="geometry" />
        </mxCell>
        <mxCell id="2KNw3RPgFfHsVNs4UQfl-84" style="edgeStyle=orthogonalEdgeStyle;rounded=0;orthogonalLoop=1;jettySize=auto;html=1;fillColor=#0050ef;strokeColor=#001DBC;" edge="1" parent="1" source="2KNw3RPgFfHsVNs4UQfl-83" target="2KNw3RPgFfHsVNs4UQfl-40">
          <mxGeometry relative="1" as="geometry">
            <Array as="points">
              <mxPoint x="940" y="495" />
              <mxPoint x="940" y="550" />
              <mxPoint x="850" y="550" />
              <mxPoint x="850" y="370" />
              <mxPoint x="590" y="370" />
              <mxPoint x="590" y="420" />
            </Array>
          </mxGeometry>
        </mxCell>
        <mxCell id="2KNw3RPgFfHsVNs4UQfl-83" value="&lt;div style=&quot;line-height: 90%;&quot;&gt;(Invoice) Port&lt;br&gt;3007&lt;/div&gt;" style="fillColor=#001DBC;aspect=fixed;sketch=0;pointerEvents=1;shadow=0;dashed=0;html=1;strokeColor=none;labelPosition=center;verticalLabelPosition=bottom;outlineConnect=0;verticalAlign=top;align=center;shape=mxgraph.openstack.neutron_port;" vertex="1" parent="1">
          <mxGeometry x="870" y="470" width="50" height="50" as="geometry" />
        </mxCell>
      </root>
    </mxGraphModel>
  </diagram>
</mxfile>
